<svg width="100" height="100" viewBox="0 0 100 100" fill="none" xmlns="http://www.w3.org/2000/svg" xmlns:xlink="http://www.w3.org/1999/xlink">
<path d="M96.148,70.664L74.273,61.288C73.338,60.89 72.3,60.806 71.313,61.049C70.327,61.292 69.446,61.849 68.804,62.636L59.116,74.472C43.912,67.304 31.677,55.068 24.508,39.864L36.344,30.176C37.133,29.535 37.691,28.655 37.934,27.668C38.177,26.681 38.092,25.642 37.692,24.708L28.317,2.832C27.878,1.825 27.101,1.003 26.12,0.507C25.14,0.012 24.017,-0.126 22.946,0.117L2.633,4.805C1.6,5.043 0.678,5.625 0.019,6.455C-0.641,7.284 -1,8.313 -1,9.373C-1,59.472 39.606,100 89.627,100C90.687,100.001 91.716,99.642 92.546,98.982C93.377,98.322 93.958,97.4 94.197,96.367L98.885,76.054C99.126,74.978 98.986,73.851 98.486,72.867C97.987,71.883 97.16,71.104 96.148,70.664Z" fill="#FFFFFF"/>
</svg>
