<svg width="100" height="100" viewBox="0 0 100 100" fill="none" xmlns="http://www.w3.org/2000/svg" xmlns:xlink="http://www.w3.org/1999/xlink">
<path d="M99,50.304C99,22.515 76.621,0 49,0C21.379,0 -1,22.515 -1,50.304C-1,75.412 17.284,96.223 41.188,100L41.188,64.846L28.486,64.846L28.486,50.304L41.188,50.304L41.188,39.221C41.188,26.615 48.647,19.651 60.073,19.651C65.544,19.651 71.266,20.633 71.266,20.633L71.266,33.006L64.96,33.006C58.75,33.006 56.812,36.884 56.812,40.862L56.812,50.304L70.679,50.304L68.462,64.846L56.812,64.846L56.812,100C80.716,96.223 99,75.412 99,50.304Z" fill="#FFFFFF"/>
</svg>