<svg width="102" height="100" viewBox="0 0 102 100" fill="none" xmlns="http://www.w3.org/2000/svg" xmlns:xlink="http://www.w3.org/1999/xlink">
<path d="M51.011,24.361C36.823,24.361 25.378,35.808 25.378,50C25.378,64.192 36.823,75.639 51.011,75.639C65.2,75.639 76.644,64.192 76.644,50C76.644,35.808 65.2,24.361 51.011,24.361ZM51.011,66.669C41.842,66.669 34.346,59.193 34.346,50C34.346,40.807 41.82,33.331 51.011,33.331C60.202,33.331 67.676,40.807 67.676,50C67.676,59.193 60.18,66.669 51.011,66.669ZM83.672,23.313C83.672,26.637 80.994,29.293 77.693,29.293C74.369,29.293 71.714,26.615 71.714,23.313C71.714,20.01 74.391,17.332 77.693,17.332C80.994,17.332 83.672,20.01 83.672,23.313ZM100.649,29.382C100.269,21.371 98.44,14.275 92.573,8.429C86.728,2.583 79.634,0.753 71.625,0.351C63.37,-0.117 38.63,-0.117 30.375,0.351C22.389,0.731 15.294,2.561 9.427,8.407C3.56,14.253 1.753,21.349 1.351,29.36C0.883,37.616 0.883,62.362 1.351,70.618C1.731,78.629 3.56,85.725 9.427,91.571C15.294,97.417 22.366,99.247 30.375,99.649C38.63,100.117 63.37,100.117 71.625,99.649C79.634,99.269 86.728,97.439 92.573,91.571C98.418,85.725 100.247,78.629 100.649,70.618C101.117,62.362 101.117,37.638 100.649,29.382ZM89.985,79.477C88.245,83.85 84.876,87.22 80.481,88.982C73.9,91.593 58.284,90.991 51.011,90.991C43.738,90.991 28.1,91.571 21.541,88.982C17.168,87.242 13.8,83.873 12.037,79.477C9.427,72.894 10.03,57.274 10.03,50C10.03,42.726 9.45,27.084 12.037,20.523C13.777,16.15 17.146,12.78 21.541,11.018C28.122,8.407 43.738,9.009 51.011,9.009C58.284,9.009 73.922,8.429 80.481,11.018C84.854,12.758 88.223,16.127 89.985,20.523C92.595,27.106 91.993,42.726 91.993,50C91.993,57.274 92.595,72.916 89.985,79.477Z" fill="#FFFFFF"/>
</svg>