<svg width="100" height="100" viewBox="0 0 100 100" fill="none" xmlns="http://www.w3.org/2000/svg" xmlns:xlink="http://www.w3.org/1999/xlink">
<path d="M84.022,14.531C74.67,5.156 62.214,0 48.978,0C21.656,0 -0.576,22.232 -0.576,49.554C-0.576,58.281 1.701,66.808 6.031,74.33L-1,100L25.272,93.103C32.504,97.054 40.652,99.129 48.955,99.129L48.978,99.129C76.277,99.129 99,76.897 99,49.576C99,36.339 93.375,23.906 84.022,14.531ZM48.978,90.781C41.567,90.781 34.312,88.795 27.996,85.045L26.5,84.152L10.92,88.237L15.071,73.036L14.089,71.473C9.96,64.911 7.795,57.344 7.795,49.554C7.795,26.853 26.277,8.371 49,8.371C60.004,8.371 70.339,12.656 78.107,20.446C85.875,28.237 90.652,38.571 90.629,49.576C90.629,72.299 71.679,90.781 48.978,90.781ZM71.567,59.933C70.339,59.308 64.246,56.317 63.107,55.915C61.969,55.491 61.143,55.29 60.317,56.54C59.491,57.79 57.125,60.558 56.388,61.406C55.674,62.232 74.424,67.924 73.196,67.299C65.92,63.661 41.656,55.223 36.857,46.987C35.585,44.799 38.129,44.955 40.496,40.223C40.897,39.397 40.696,38.683 40.384,38.058C40.071,37.433 37.594,31.339 36.567,28.862C35.562,26.451 34.536,26.786 33.777,26.741C33.062,26.696 32.237,26.696 31.411,26.696C30.585,26.696 29.246,27.009 28.107,28.237C26.969,29.487 23.777,32.478 23.777,38.571C23.777,44.665 28.219,50.558 28.821,51.384C29.446,52.21 37.549,64.71 49.982,70.089C57.839,73.482 60.92,73.772 64.848,73.192C67.237,72.835 72.17,70.201 73.196,67.299C74.223,64.397 74.223,61.92 73.911,61.406C73.621,60.848 72.795,60.536 71.567,59.933Z" fill="#FFFFFF"/>
</svg>
